<svg width="41" height="41" viewBox="0 0 41 41" fill="none" xmlns="http://www.w3.org/2000/svg">
<path d="M29.1376 22H5.76619C5.4313 22.0045 5.10589 21.8888 4.84902 21.6738C4.59215 21.4589 4.42084 21.159 4.36619 20.8286L2.02334 9.4C1.98572 9.19447 1.99366 8.98319 2.04657 8.78106C2.09948 8.57893 2.19609 8.39087 2.32959 8.23013C2.46308 8.06939 2.63021 7.9399 2.81919 7.85077C3.00817 7.76164 3.21439 7.71505 3.42334 7.71429H31.9948M29.1376 22L31.9948 7.71429M29.1376 22L27.9376 28C27.8718 28.3227 27.6964 28.6127 27.4413 28.8209C27.1862 29.0292 26.867 29.1429 26.5376 29.1429H9.13762M31.9948 7.71429L33.1948 3.14286C33.2606 2.82018 33.436 2.53017 33.6911 2.32191C33.9462 2.11365 34.2654 1.99993 34.5948 2H39.1376" stroke="black" stroke-width="2.85714" stroke-linecap="round" stroke-linejoin="round"/>
<path d="M10.5661 39.1429C11.3551 39.1429 11.9947 38.5033 11.9947 37.7143C11.9947 36.9254 11.3551 36.2858 10.5661 36.2858C9.77717 36.2858 9.13757 36.9254 9.13757 37.7143C9.13757 38.5033 9.77717 39.1429 10.5661 39.1429Z" stroke="black" stroke-width="2.85714" stroke-linecap="round" stroke-linejoin="round"/>
<path d="M24.8519 39.1429C25.6409 39.1429 26.2805 38.5033 26.2805 37.7143C26.2805 36.9254 25.6409 36.2858 24.8519 36.2858C24.0629 36.2858 23.4233 36.9254 23.4233 37.7143C23.4233 38.5033 24.0629 39.1429 24.8519 39.1429Z" stroke="black" stroke-width="2.85714" stroke-linecap="round" stroke-linejoin="round"/>
</svg>
