<svg width="60" height="60" viewBox="0 0 60 60" fill="none" xmlns="http://www.w3.org/2000/svg">
<g clip-path="url(#clip0_133_2)">
<mask id="mask0_133_2" style="mask-type:luminance" maskUnits="userSpaceOnUse" x="0" y="0" width="60" height="60">
<path d="M60 0H0V60H60V0Z" fill="white"/>
</mask>
<g mask="url(#mask0_133_2)">
<path d="M29.9999 40C29.4157 40.0011 28.8498 39.7977 28.4 39.425L13.4 26.925C12.8894 26.5006 12.5684 25.8909 12.5074 25.2298C12.4465 24.5688 12.6506 23.9105 13.075 23.4C13.4993 22.8894 14.1091 22.5684 14.7702 22.5075C15.4312 22.4465 16.0894 22.6507 16.6 23.075L29.9999 34.275L43.4 23.475C43.6556 23.2674 43.9499 23.1122 44.2657 23.0187C44.5816 22.9251 44.9129 22.8949 45.2405 22.9297C45.5681 22.9646 45.8855 23.0638 46.1745 23.2217C46.4635 23.3797 46.7188 23.5932 46.925 23.85C47.1538 24.1071 47.3274 24.4086 47.4342 24.7358C47.5414 25.063 47.5794 25.4087 47.5467 25.7514C47.5138 26.0941 47.4107 26.4262 47.2432 26.7271C47.0761 27.028 46.8487 27.2912 46.5749 27.5L31.5749 39.575C31.1124 39.8888 30.5576 40.0384 29.9999 40Z" fill="#575757"/>
</g>
</g>
<defs>
<clipPath id="clip0_133_2">
<rect width="60" height="60" fill="white"/>
</clipPath>
</defs>
</svg>
